<svg id="svg" version="1.1" xmlns="http://www.w3.org/2000/svg" xmlns:xlink="http://www.w3.org/1999/xlink" width="400" height="400" viewBox="0, 0, 400,400"><g id="svgg"><path id="path0" d="M198.308 78.013 C 160.501 81.911,127.006 102.166,106.304 133.648 L 103.948 137.231 101.897 137.234 C 84.700 137.261,65.321 143.316,50.075 153.426 C 6.477 182.337,-6.714 240.490,20.177 285.231 C 22.827 289.639,23.754 290.964,23.515 290.000 C 23.237 288.873,53.381 259.064,53.999 259.854 C 54.380 260.340,54.370 260.231,53.950 259.308 C 53.661 258.673,53.306 258.154,53.160 258.154 C 53.015 258.154,52.932 257.981,52.976 257.769 C 53.019 257.558,52.614 256.241,52.075 254.842 C 39.244 221.574,61.047 184.777,96.523 179.827 C 102.270 179.025,108.789 179.334,118.462 180.869 C 129.793 182.667,128.728 182.642,129.381 181.122 C 129.683 180.420,130.479 178.669,131.149 177.231 C 131.820 175.792,133.328 172.497,134.501 169.908 C 141.104 155.330,149.103 145.205,161.296 135.987 C 168.323 130.676,180.369 124.481,186.077 123.245 C 186.627 123.126,187.077 122.935,187.078 122.822 C 187.078 122.708,187.597 122.583,188.231 122.543 C 189.321 122.474,190.566 121.279,210.677 101.004 C 232.444 79.060,232.387 79.120,231.462 79.108 C 231.165 79.105,228.985 78.814,226.615 78.463 C 220.813 77.604,204.756 77.348,198.308 78.013 " stroke="none" fill="#fc803a" fill-rule="evenodd"></path><path id="path1" d="M312.923 76.844 L 312.923 86.304 322.308 76.923 C 327.469 71.764,331.692 67.507,331.692 67.463 C 331.692 67.420,327.469 67.385,322.308 67.385 L 312.923 67.385 312.923 76.844 M210.923 100.745 C 191.895 119.976,189.198 122.781,190.513 121.968 C 190.732 121.833,191.122 121.692,191.379 121.656 C 191.636 121.620,192.227 121.509,192.692 121.410 C 199.462 119.973,208.522 119.292,215.385 119.702 C 225.038 120.280,237.231 123.009,237.231 124.592 C 237.231 130.364,246.324 144.690,251.167 146.549 C 251.456 146.659,251.692 146.893,251.692 147.067 C 251.692 147.999,254.413 145.374,277.361 122.305 C 298.589 100.964,302.227 97.179,301.769 96.918 C 301.473 96.749,301.231 96.397,301.231 96.137 C 301.231 94.280,292.070 86.896,287.088 84.737 C 277.858 80.738,265.047 80.969,256.810 85.285 C 255.984 85.718,255.696 85.660,251.583 84.235 C 245.236 82.036,236.125 79.743,232.976 79.554 C 232.004 79.496,230.872 80.583,210.923 100.745 M38.307 274.462 L 23.232 289.539 23.952 290.896 C 30.382 303.017,53.350 320.925,69.538 326.440 C 70.638 326.815,71.746 327.203,72.000 327.303 C 72.254 327.403,72.554 327.497,72.667 327.512 C 72.779 327.527,72.956 327.622,73.058 327.725 C 73.160 327.827,74.379 326.719,75.765 325.263 C 77.152 323.807,85.421 315.450,94.142 306.692 L 109.998 290.769 106.768 290.764 C 84.748 290.731,66.682 280.911,56.124 263.236 C 54.474 260.472,53.734 259.385,53.503 259.385 C 53.437 259.385,46.599 266.169,38.307 274.462 " stroke="none" fill="#fc5243" fill-rule="evenodd"></path><path id="path2" d="M322.383 76.848 L 312.923 86.311 312.923 92.233 L 312.923 98.154 328.308 98.154 L 343.692 98.154 343.692 82.769 L 343.692 67.385 337.767 67.385 L 331.842 67.385 322.383 76.848 M277.105 122.517 L 252.309 147.496 253.154 148.072 C 277.596 164.725,311.999 143.286,308.346 113.679 C 307.611 107.716,303.714 97.538,302.167 97.538 C 302.021 97.538,290.743 108.779,277.105 122.517 M318.462 130.154 C 318.462 142.677,318.502 152.923,318.552 152.923 C 318.602 152.923,328.790 142.677,341.193 130.154 L 363.744 107.385 341.103 107.385 L 318.462 107.385 318.462 130.154 M243.692 189.385 L 243.692 213.538 250.992 213.538 L 258.291 213.538 271.788 200.077 C 279.211 192.673,286.796 184.994,288.642 183.012 L 292.000 179.408 292.000 172.319 L 292.000 165.231 267.846 165.231 L 243.692 165.231 243.692 189.385 M91.737 309.071 C 81.728 319.137,73.538 327.496,73.538 327.646 C 73.538 328.274,82.867 330.612,90.000 331.772 C 93.775 332.386,95.298 332.428,117.077 332.513 L 140.154 332.604 160.881 311.686 L 181.607 290.769 145.772 290.769 L 109.936 290.769 91.737 309.071 " stroke="none" fill="#fc304b" fill-rule="evenodd"></path><path id="path3" d="M341.180 130.166 L 318.615 152.947 318.526 155.397 L 318.437 157.846 343.526 157.846 L 368.615 157.846 368.615 170.319 L 368.615 182.791 375.615 182.592 L 382.615 182.394 388.043 176.966 L 393.470 171.538 393.663 164.538 L 393.856 157.538 381.390 157.538 L 368.923 157.538 368.923 132.462 L 368.923 107.385 366.334 107.385 L 363.744 107.385 341.180 130.166 M308.308 190.769 L 308.308 211.692 310.336 211.692 C 318.294 211.692,329.527 216.811,335.692 223.246 C 336.454 224.041,337.486 225.102,337.986 225.604 L 338.895 226.518 353.601 211.767 C 361.690 203.654,368.309 196.822,368.311 196.585 C 368.314 196.019,362.393 190.262,359.072 187.601 C 345.340 176.600,327.699 169.846,312.692 169.846 L 308.308 169.846 308.308 190.769 M289.692 181.867 C 288.508 183.209,280.958 190.883,272.916 198.922 L 258.293 213.538 275.146 213.538 L 292.000 213.538 292.000 196.462 C 292.000 187.069,291.965 179.395,291.923 179.407 C 291.881 179.419,290.877 180.526,289.692 181.867 M160.903 311.615 L 140.198 332.462 186.789 332.539 L 233.381 332.617 252.249 313.770 C 262.626 303.404,271.953 293.988,272.974 292.846 L 274.833 290.769 228.221 290.769 L 181.609 290.769 160.903 311.615 " stroke="none" fill="#f10a56" fill-rule="evenodd"></path><path id="path4" d="M393.538 167.003 L 393.538 171.545 388.077 176.996 L 382.615 182.448 378.154 182.541 C 375.700 182.592,378.227 182.664,383.769 182.701 L 393.846 182.769 393.846 172.615 C 393.846 167.031,393.777 162.462,393.692 162.462 C 393.608 162.462,393.538 164.505,393.538 167.003 M353.716 211.581 C 341.268 224.133,338.899 226.390,338.509 226.071 C 338.181 225.802,338.206 225.938,338.597 226.538 C 339.140 227.373,339.630 227.748,339.200 227.000 C 339.078 226.788,339.097 226.723,339.242 226.855 C 339.386 226.987,339.530 227.266,339.561 227.476 C 339.592 227.686,340.039 228.483,340.554 229.247 C 354.210 249.480,345.741 277.646,323.062 287.424 C 316.156 290.401,312.830 290.757,291.408 290.810 L 274.923 290.852 254.159 311.743 L 233.396 332.634 275.082 332.533 C 320.312 332.424,317.528 332.522,325.756 330.740 C 365.229 322.188,392.685 284.204,388.901 243.385 C 387.358 226.751,379.567 208.359,369.662 197.972 L 368.462 196.712 353.716 211.581 " stroke="none" fill="#dd044c" fill-rule="evenodd"></path></g></svg>