<svg version="1.1" id="Layer_1" xmlns="http://www.w3.org/2000/svg" xmlns:xlink="http://www.w3.org/1999/xlink" x="0px" y="0px"
	 width="100%" viewBox="0 0 1265 876" enable-background="new 0 0 1265 876" xml:space="preserve">
<path fill="#000000" opacity="1.000000" stroke="none" 
	d="
M1266.000000,316.000000 
	C1266.000000,503.311554 1266.000000,690.123108 1266.000000,876.967285 
	C844.404297,876.967285 422.808624,876.967285 1.106469,876.967285 
	C1.106469,585.105103 1.106469,293.210083 1.106469,1.157560 
	C422.666626,1.157560 844.333313,1.157560 1266.000000,1.157560 
	C1266.000000,105.858177 1266.000000,210.679092 1266.000000,316.000000 
M1100.972412,64.069855 
	C1100.925903,55.379173 1100.879395,46.688492 1100.972656,37.070019 
	C1100.972656,28.804716 1100.972656,20.539413 1100.972656,12.167202 
	C1097.936646,12.167202 1095.467407,12.167202 1092.070312,12.027570 
	C1079.046753,12.073899 1066.023193,12.120229 1052.071533,12.026779 
	C1035.150879,12.026779 1018.230347,12.026779 1001.166504,12.026779 
	C1001.166504,30.084066 1001.166504,47.541649 1001.025696,65.927284 
	C1001.072876,78.950500 1001.119995,91.973717 1001.026245,105.888008 
	C1001.026245,107.816406 1001.026245,109.744804 1001.026245,111.832840 
	C1010.062561,111.832840 1018.530762,111.832840 1027.927124,111.973366 
	C1036.617798,111.926544 1045.308350,111.879723 1054.927246,111.973595 
	C1070.180298,111.973595 1085.433228,111.973595 1100.833130,111.973595 
	C1100.833130,95.910896 1100.833130,80.454300 1100.972412,64.069855 
M776.025879,375.928619 
	C776.072693,387.286560 776.119446,398.644501 776.026062,410.930176 
	C776.072632,425.952942 776.119141,440.975677 776.025391,456.926758 
	C776.025391,466.884583 776.025391,476.842377 776.025391,486.834351 
	C778.024658,486.834351 779.512268,486.834351 781.927917,486.974548 
	C794.951660,486.927704 807.975403,486.880890 821.927490,486.973694 
	C830.618530,486.927063 839.309509,486.880432 848.928650,486.973541 
	C864.950623,486.926422 880.972534,486.879333 897.923767,486.971863 
	C909.510803,486.971863 921.097839,486.971863 932.832214,486.971863 
	C932.832214,474.574463 932.832214,462.784668 932.971313,450.067352 
	C932.925415,433.711700 932.879578,417.356079 932.972595,400.072113 
	C932.926453,391.381195 932.880310,382.690277 932.972961,373.071228 
	C932.926758,360.047760 932.880554,347.024292 932.971924,333.129883 
	C933.317993,330.911285 932.649231,329.903320 930.127930,329.951996 
	C920.753479,330.133026 911.375183,330.111359 901.070312,330.026917 
	C886.047668,330.073364 871.025024,330.119781 855.073669,330.026855 
	C843.716309,330.073334 832.358948,330.119843 820.072998,330.027039 
	C805.485596,330.027039 790.898132,330.027039 776.166321,330.027039 
	C776.166321,345.419128 776.166321,360.209900 776.025879,375.928619 
M1024.263916,346.779266 
	C1011.648621,343.691986 998.904724,345.409668 986.165894,345.062531 
	C986.165894,359.173218 986.165894,372.585999 986.026245,386.927124 
	C986.071594,400.616791 986.116943,414.306488 986.021667,428.924591 
	C986.021667,446.183655 986.021667,463.442719 986.021667,479.332031 
	C998.911377,481.698669 1010.931152,483.905609 1023.335266,486.751129 
	C1041.578613,492.340118 1057.284058,502.313873 1071.349487,514.955750 
	C1075.854248,519.004639 1079.772095,523.706421 1084.236328,528.735596 
	C1089.617798,537.427246 1095.603516,545.813782 1100.194336,554.904724 
	C1104.032593,562.505676 1106.239136,570.930664 1109.028809,579.816467 
	C1109.691650,584.336121 1110.346313,588.856934 1111.018677,593.375183 
	C1113.681152,611.264954 1112.088989,628.922546 1106.810791,646.069824 
	C1101.370972,663.742249 1092.432739,679.520996 1080.165771,693.658203 
	C1070.064941,705.298828 1058.256836,714.464783 1045.067993,721.886780 
	C1024.148926,733.659058 1001.288330,738.020996 977.458069,738.006287 
	C965.302612,737.998779 953.147095,738.109436 940.062927,738.039062 
	C928.934509,738.027405 917.806030,737.992859 906.677673,738.008484 
	C877.448486,738.049500 848.219238,738.112305 818.061829,738.037598 
	C799.785522,738.025452 781.509277,737.987244 763.232971,738.007324 
	C736.486694,738.036682 709.740479,738.107788 682.066223,738.027405 
	C668.376343,738.073669 654.686462,738.119873 640.068726,738.027344 
	C625.379150,738.073608 610.689514,738.119873 595.071655,738.027222 
	C586.380615,738.073486 577.689514,738.119690 568.070435,738.027100 
	C558.711609,738.074097 549.352844,738.121155 539.066589,738.029175 
	C524.377625,738.074646 509.688690,738.120178 494.071503,738.026794 
	C484.380493,738.073486 474.689453,738.120117 464.070496,738.027405 
	C452.713135,738.073914 441.355804,738.120422 429.070496,738.027527 
	C417.713654,738.073975 406.356812,738.120422 394.071808,738.027161 
	C383.047729,738.073608 372.023682,738.119995 360.071472,738.026917 
	C348.714233,738.073303 337.357025,738.119751 325.094116,738.026672 
	C314.062927,737.073120 303.031738,736.119568 291.185211,735.024353 
	C282.122467,732.738525 273.059723,730.452698 263.319122,727.828247 
	C255.212051,724.274414 247.104965,720.720642 238.349731,716.851807 
	C231.249771,712.532654 224.149796,708.213501 216.732330,703.286194 
	C203.531021,694.291138 192.279510,683.208374 181.830582,670.335144 
	C176.236603,662.521545 170.642624,654.708008 164.987930,646.173340 
	C159.936264,634.971375 154.884583,623.769409 149.900131,611.737732 
	C147.543823,602.156799 145.187515,592.575867 142.971252,582.139832 
	C142.313980,573.689880 140.834076,565.204956 141.192139,556.798218 
	C141.729996,544.170349 143.555847,531.597290 144.993744,518.216553 
	C145.193909,517.780457 145.476593,517.363464 145.582306,516.905579 
	C149.466629,500.080627 155.327820,484.020294 163.986603,469.028656 
	C166.083588,465.397980 168.074783,461.706177 170.743317,457.761597 
	C173.747299,453.716797 176.724777,449.652039 179.760010,445.630798 
	C190.843231,430.947449 204.028397,418.367401 219.210388,408.090057 
	C228.427597,401.850555 238.405273,396.734436 248.797699,391.000000 
	C250.604675,390.320892 252.440384,389.709137 254.214096,388.952087 
	C269.512268,382.422394 285.508453,378.659607 302.848297,376.974304 
	C305.902618,376.649658 308.960754,376.017761 312.010529,376.056000 
	C322.673981,376.189667 333.334564,376.554657 344.824005,376.978790 
	C352.549225,378.264038 360.274475,379.549316 368.851837,380.977417 
	C376.712189,382.229279 384.629608,383.203552 392.418121,384.804779 
	C401.692200,386.711365 402.650604,386.289398 405.757721,379.707458 
	C416.748260,356.425812 427.976501,333.256378 439.732422,309.716980 
	C450.765778,290.311157 465.426849,273.734375 480.855286,257.851776 
	C486.892151,251.637207 493.991943,246.449249 500.654663,240.849701 
	C518.079224,226.205460 537.499939,214.756805 558.780701,205.002853 
	C576.783875,196.668686 595.640259,190.974396 615.804565,186.952515 
	C627.219788,185.301605 638.590576,183.120453 650.063599,182.160614 
	C659.981262,181.330887 670.015015,181.888824 680.916931,181.976440 
	C696.610840,183.928711 712.304688,185.880981 728.782104,187.996567 
	C737.152649,190.347641 745.523254,192.698700 754.244873,195.760620 
	C757.146790,204.875809 760.048706,213.990997 763.010681,223.834473 
	C768.637146,232.571945 774.263611,241.309433 780.173645,250.676483 
	C786.079041,256.466614 791.984497,262.256744 798.215637,268.664246 
	C804.774353,272.458954 811.333130,276.253693 818.238708,280.682190 
	C824.492615,283.065918 830.746582,285.449646 837.706909,288.196289 
	C848.137634,289.741913 858.568420,291.287506 869.881531,292.973511 
	C872.974182,292.649536 876.096680,292.497864 879.153931,291.969025 
	C887.956726,290.446136 896.967651,289.554047 905.475281,287.006439 
	C929.567261,279.792175 949.169189,265.743500 963.977112,245.418274 
	C979.434326,224.201675 987.291687,200.390411 986.972351,173.109238 
	C986.635681,168.202103 986.693115,163.226532 985.855713,158.406372 
	C984.950562,153.195450 983.209656,148.129684 981.970581,142.217209 
	C979.330872,135.776520 976.691162,129.335831 973.988770,122.171883 
	C970.028992,116.098839 966.069214,110.025803 961.824585,103.323898 
	C955.548950,96.938072 949.273376,90.552254 942.372070,83.863564 
	C933.822876,78.699097 925.273621,73.534630 916.070496,68.033936 
	C906.380188,65.411560 896.689941,62.789177 886.160645,59.994152 
	C885.255554,59.670254 884.341492,59.042454 883.446716,59.068832 
	C872.962158,59.377960 862.480469,59.785339 851.174133,60.027409 
	C842.630737,62.396954 833.812927,64.079597 825.628967,67.348907 
	C818.826904,70.066170 812.899414,72.239067 805.818054,68.193459 
	C802.017883,66.022446 797.300720,65.456635 792.312073,63.824635 
	C783.518555,61.233288 774.792664,58.373180 765.909729,56.137268 
	C759.040955,54.408379 751.975525,53.461304 744.269775,51.790157 
	C733.179199,50.249210 722.088623,48.708260 710.149353,47.023445 
	C708.748352,46.684673 707.354858,46.088768 705.945190,46.047546 
	C693.963989,45.697227 681.979858,45.447830 669.069092,45.028046 
	C654.378174,45.741253 639.687195,46.454456 624.137695,47.026764 
	C615.798889,48.159458 607.419189,49.056530 599.133789,50.496658 
	C592.032776,51.730930 585.039795,53.586834 577.185425,55.028015 
	C575.939880,55.347267 574.679199,55.616886 573.451172,55.993271 
	C557.284180,60.948437 541.121765,65.918655 524.202209,71.001518 
	C509.121735,77.961945 494.041290,84.922379 478.229156,91.997604 
	C462.116180,102.004784 445.241547,110.990372 430.089600,122.286621 
	C412.508179,135.394119 396.083130,150.140030 379.859375,164.945419 
	C371.405701,172.660004 363.949921,181.636551 356.955872,190.743820 
	C345.568756,205.571533 334.963379,220.998383 323.914703,236.089417 
	C322.971710,237.377441 321.239014,238.765137 319.771942,238.886948 
	C304.860016,240.125046 289.927094,241.109695 274.210266,242.314987 
	C273.617828,242.539429 273.042786,242.845200 272.430359,242.976196 
	C261.610016,245.290741 250.785126,247.584000 239.152100,249.985565 
	C234.635406,251.243362 230.085129,252.392517 225.607666,253.777161 
	C202.571732,260.901031 180.654739,270.607635 160.011093,283.043335 
	C139.372986,295.475708 119.881386,309.522186 102.885910,326.707855 
	C93.823288,335.871918 85.062302,345.358276 76.553864,355.040741 
	C63.393410,370.017120 52.261658,386.517456 43.122410,404.179169 
	C35.897808,418.140778 29.484409,432.574524 23.595182,447.155823 
	C19.853683,456.419434 17.730772,466.336792 14.207721,476.363434 
	C13.804166,478.257263 13.373431,480.145813 13.001604,482.045837 
	C11.047978,492.029053 9.109252,502.015137 7.020344,512.881897 
	C6.343732,523.647705 5.458727,534.405762 5.059656,545.181824 
	C4.766119,553.108215 5.108364,561.058167 5.022423,569.921448 
	C5.645316,577.963318 6.268209,586.005188 6.983614,594.934082 
	C8.044524,601.622131 9.105433,608.310242 10.022636,615.830627 
	C12.309349,625.234375 14.596062,634.638062 16.980812,644.849487 
	C22.638927,659.935669 28.297043,675.021790 34.010132,690.837341 
	C38.062424,698.557495 42.114712,706.277588 46.233345,714.693665 
	C52.878159,724.794067 59.522972,734.894470 66.220879,745.670776 
	C72.464584,753.150696 78.708290,760.630615 85.214722,768.720215 
	C93.320206,776.821716 101.315735,785.037903 109.583191,792.970642 
	C113.080177,796.325989 117.149338,799.084961 121.228836,802.731628 
	C127.783875,807.504272 134.338913,812.276855 141.181305,817.678772 
	C148.454025,822.396851 155.726746,827.114929 163.647446,832.149048 
	C170.808151,835.899536 177.968857,839.650085 185.700211,843.914612 
	C194.678909,847.554260 203.657623,851.193970 213.303207,855.038818 
	C221.852417,857.728271 230.401627,860.417725 239.364914,863.770935 
	C248.576874,865.791687 257.788818,867.812378 267.856842,869.973633 
	C277.888031,871.017700 287.919220,872.061768 298.448334,873.815186 
	C309.965332,873.821167 321.482300,873.827209 333.927490,873.973511 
	C343.951691,873.927124 353.975891,873.880676 364.928101,873.974548 
	C379.283844,873.926941 393.639618,873.879395 408.924286,873.972534 
	C418.615509,873.926331 428.306702,873.880127 438.926453,873.973389 
	C447.617645,873.926941 456.308807,873.880432 465.928131,873.973633 
	C480.284210,873.927063 494.640259,873.880493 509.925262,873.973206 
	C523.948364,873.928406 537.971436,873.883606 552.923035,873.980713 
	C563.556335,873.989136 574.189636,874.017090 584.822937,874.002258 
	C619.212341,873.954407 653.601746,873.890869 688.919556,873.979248 
	C728.943970,873.930603 768.968323,873.881897 809.921204,873.977051 
	C851.944580,873.929199 893.967896,873.881287 936.920166,873.975586 
	C961.004395,873.650269 985.112854,873.861694 1009.162537,872.773010 
	C1021.185364,872.228760 1033.260620,870.009583 1045.031006,867.318115 
	C1068.556030,861.938843 1090.878174,853.257202 1112.094360,841.545227 
	C1132.812866,830.107971 1151.502808,816.023132 1168.492065,799.745667 
	C1176.919800,791.671082 1184.379761,782.536743 1191.867188,773.540283 
	C1211.710205,749.698242 1225.589844,722.453674 1235.678711,693.335632 
	C1243.369141,671.140015 1247.558472,648.024292 1248.785645,624.599365 
	C1249.547241,610.063843 1248.581299,595.411499 1247.863281,580.837524 
	C1247.568359,574.853577 1245.885132,568.938049 1244.957275,562.161072 
	C1244.093018,557.695557 1243.280640,553.219177 1242.355469,548.766235 
	C1238.395020,529.706543 1231.485474,511.637512 1223.403442,494.025482 
	C1220.512329,487.725037 1216.531982,481.924438 1212.976807,475.180206 
	C1211.775879,473.066284 1210.671753,470.890106 1209.358398,468.848511 
	C1200.694214,455.381134 1191.897705,442.010254 1179.997192,430.261688 
	C1179.221191,429.233337 1178.576294,428.064514 1177.648804,427.198425 
	C1168.634033,418.780884 1159.953735,409.945129 1150.407715,402.174896 
	C1142.162476,395.463470 1132.917847,389.979919 1123.769287,383.339111 
	C1103.515015,370.646729 1081.847534,361.091522 1058.205566,354.024231 
	C1057.567017,353.911499 1056.925049,353.815552 1056.290527,353.683563 
	C1045.859253,351.513702 1035.429077,349.339264 1024.263916,346.779266 
M1158.070557,142.027084 
	C1149.044922,142.074081 1140.019287,142.121078 1130.066284,142.029022 
	C1114.710693,142.074524 1099.355225,142.120026 1083.071411,142.026825 
	C1061.818970,142.026825 1040.566528,142.026825 1019.165405,142.026825 
	C1019.165405,164.420364 1019.165405,186.210312 1019.025146,208.928253 
	C1019.072754,224.283936 1019.120361,239.639603 1019.027466,255.924210 
	C1019.073547,264.615845 1019.119629,273.307495 1019.026001,282.927338 
	C1019.017822,289.633331 1019.078491,296.340485 1018.963684,303.044647 
	C1018.924072,305.353485 1019.530273,306.488739 1022.930603,305.973297 
	C1037.953491,305.926880 1052.976318,305.880432 1068.927368,305.973572 
	C1082.950562,305.928162 1096.973755,305.882751 1111.925415,305.978119 
	C1135.169556,305.978119 1158.413818,305.978119 1182.164429,305.978119 
	C1182.164429,314.405823 1182.164429,322.199402 1182.020020,330.921356 
	C1182.020020,349.491425 1182.020020,368.061462 1182.020020,386.668945 
	C1209.621704,386.668945 1236.636353,386.668945 1263.656982,386.668945 
	C1263.656982,359.321533 1263.656982,332.306732 1263.656982,305.164429 
	C1244.541016,305.164429 1225.767212,305.164429 1206.064941,305.033813 
	C1198.473511,305.033813 1190.882202,305.033813 1182.837524,305.033813 
	C1182.837524,280.561798 1182.837524,256.779236 1182.972900,232.068481 
	C1182.926636,218.045303 1182.880249,204.022141 1182.972534,189.070816 
	C1182.926270,174.047791 1182.880127,159.024750 1182.918213,143.138641 
	C1182.149780,142.760925 1181.382812,142.059341 1180.612671,142.055954 
	C1173.408325,142.024353 1166.203369,142.112411 1158.070557,142.027084 
z"/>
<path fill="#D40647" opacity="1.000000" stroke="none" 
	d="
M1244.833374,562.991333 
	C1245.885132,568.938049 1247.568359,574.853577 1247.863281,580.837524 
	C1248.581299,595.411499 1249.547241,610.063843 1248.785645,624.599365 
	C1247.558472,648.024292 1243.369141,671.140015 1235.678711,693.335632 
	C1225.589844,722.453674 1211.710205,749.698242 1191.867188,773.540283 
	C1184.379761,782.536743 1176.919800,791.671082 1168.492065,799.745667 
	C1151.502808,816.023132 1132.812866,830.107971 1112.094360,841.545227 
	C1090.878174,853.257202 1068.556030,861.938843 1045.031006,867.318115 
	C1033.260620,870.009583 1021.185364,872.228760 1009.162537,872.773010 
	C985.112854,873.861694 961.004395,873.650269 936.484985,873.555786 
	C937.119019,871.505066 937.948669,869.637390 939.292419,868.277893 
	C975.128906,832.020447 1010.994263,795.791382 1046.904663,759.607178 
	C1096.667358,709.465027 1146.460205,659.352844 1196.263062,609.250549 
	C1210.479004,594.949219 1224.738770,580.690796 1239.083618,566.519043 
	C1240.641357,564.980042 1242.899902,564.150146 1244.833374,562.991333 
z"/>
<path fill="#DE064D" opacity="1.000000" stroke="none" 
	d="
M1244.895264,562.576172 
	C1242.899902,564.150146 1240.641357,564.980042 1239.083618,566.519043 
	C1224.738770,580.690796 1210.479004,594.949219 1196.263062,609.250549 
	C1146.460205,659.352844 1096.667358,709.465027 1046.904663,759.607178 
	C1010.994263,795.791382 975.128906,832.020447 939.292419,868.277893 
	C937.948669,869.637390 937.119019,871.505066 936.020508,873.484680 
	C893.967896,873.881287 851.944580,873.929199 809.542603,873.583740 
	C810.529175,871.540527 811.770813,869.767334 813.277466,868.258972 
	C854.182617,827.308594 895.131714,786.401978 935.992676,745.407532 
	C938.029907,743.363586 939.341919,740.596863 940.991577,738.166687 
	C953.147095,738.109436 965.302612,737.998779 977.458069,738.006287 
	C1001.288330,738.020996 1024.148926,733.659058 1045.067993,721.886780 
	C1058.256836,714.464783 1070.064941,705.298828 1080.165771,693.658203 
	C1092.432739,679.520996 1101.370972,663.742249 1106.810791,646.069824 
	C1112.088989,628.922546 1113.681152,611.264954 1111.018677,593.375183 
	C1110.346313,588.856934 1109.691650,584.336121 1109.447144,579.377808 
	C1111.728638,577.640808 1113.835083,576.586548 1115.418945,575.007996 
	C1144.398071,546.127563 1173.343384,517.213013 1202.209595,488.219818 
	C1206.062134,484.350342 1209.447266,480.015289 1213.048706,475.895752 
	C1216.531982,481.924438 1220.512329,487.725037 1223.403442,494.025482 
	C1231.485474,511.637512 1238.395020,529.706543 1242.355469,548.766235 
	C1243.280640,553.219177 1244.093018,557.695557 1244.895264,562.576172 
z"/>
<path fill="#FC8C38" opacity="1.000000" stroke="none" 
	d="
M275.000031,242.165344 
	C289.927094,241.109695 304.860016,240.125046 319.771942,238.886948 
	C321.239014,238.765137 322.971710,237.377441 323.914703,236.089417 
	C334.963379,220.998383 345.568756,205.571533 356.955872,190.743820 
	C363.949921,181.636551 371.405701,172.660004 379.859375,164.945419 
	C396.083130,150.140030 412.508179,135.394119 430.089600,122.286621 
	C445.241547,110.990372 462.116180,102.004784 478.531433,92.282700 
	C477.751678,94.015694 476.822601,95.614494 475.565125,96.889397 
	C447.262177,125.583725 418.967987,154.286926 390.581177,182.898193 
	C339.663483,234.218597 288.685760,285.479431 237.733673,336.765656 
	C187.016403,387.815491 136.326111,438.892181 85.571732,489.905060 
	C60.423706,515.181274 35.168835,540.351196 9.917746,565.524536 
	C8.544715,566.893372 6.760243,567.849426 5.167292,568.997620 
	C5.108364,561.058167 4.766119,553.108215 5.059656,545.181824 
	C5.458727,534.405762 6.343732,523.647705 7.441880,512.413696 
	C9.730144,510.642944 11.850101,509.591064 13.425434,507.999969 
	C35.575600,485.628265 57.554638,463.086578 79.767464,440.777618 
	C116.690971,403.694214 153.815582,366.811035 190.735886,329.724457 
	C217.885162,302.452911 244.860764,275.008270 271.837677,247.565933 
	C273.255676,246.123459 273.962250,243.981598 275.000031,242.165344 
z"/>
<path fill="#F10558" opacity="1.000000" stroke="none" 
	d="
M687.991089,873.833313 
	C653.601746,873.890869 619.212341,873.954407 584.822937,874.002258 
	C574.189636,874.017090 563.556335,873.989136 552.543945,873.587769 
	C552.941040,872.132874 553.604431,870.961731 554.510559,870.025635 
	C566.182312,857.968811 577.771790,845.829224 589.609192,833.936646 
	C619.408508,803.998840 649.342346,774.195068 679.142090,744.257751 
	C680.797302,742.594971 681.726868,740.210022 682.994202,738.161194 
	C709.740479,738.107788 736.486694,738.036682 763.232971,738.007324 
	C781.509277,737.987244 799.785522,738.025452 818.443787,738.423950 
	C817.695679,740.228149 816.689148,741.769226 815.416992,743.045532 
	C798.478516,760.039917 781.440979,776.935974 764.550964,793.978333 
	C740.283020,818.465088 716.093201,843.029602 691.954468,867.643738 
	C690.275452,869.355896 689.295898,871.754089 687.991089,873.833313 
z"/>
<path fill="#FC833A" opacity="1.000000" stroke="none" 
	d="
M10.166340,614.998291 
	C9.105433,608.310242 8.044524,601.622131 7.228586,594.315918 
	C8.940165,592.340698 10.462466,591.038635 11.865094,589.618469 
	C36.668755,564.504395 61.401478,539.319946 86.261780,514.262146 
	C137.988403,462.124603 189.736511,410.008240 241.556229,357.963287 
	C334.159515,264.957458 426.822327,172.010910 519.459900,79.039261 
	C520.047729,78.449272 520.758484,77.934929 521.192139,77.246811 
	C522.505554,75.162857 523.710815,73.010689 524.958252,70.885101 
	C541.121765,65.918655 557.284180,60.948437 573.451172,55.993271 
	C574.679199,55.616886 575.939880,55.347267 577.508057,55.419579 
	C577.052368,56.874466 576.387573,58.047943 575.478638,58.984505 
	C562.850403,71.996574 550.287659,85.074364 537.517883,97.946548 
	C485.583344,150.297470 433.635986,202.635880 381.590118,254.876083 
	C338.463257,298.163971 295.175964,341.292023 252.040298,384.571167 
	C250.285629,386.331696 249.355576,388.914124 248.041321,391.113617 
	C238.405273,396.734436 228.427597,401.850555 219.210388,408.090057 
	C204.028397,418.367401 190.843231,430.947449 179.760010,445.630798 
	C176.724777,449.652039 173.747299,453.716797 170.086548,457.965027 
	C167.985046,459.247253 166.362885,460.154602 165.125839,461.434204 
	C159.352982,467.405762 153.825546,473.618927 147.959717,479.495514 
	C103.875648,523.660889 59.743324,567.778137 15.558611,611.842773 
	C14.131564,613.265991 11.980097,613.962830 10.166340,614.998291 
z"/>
<path fill="#E70552" opacity="1.000000" stroke="none" 
	d="
M688.455322,873.906250 
	C689.295898,871.754089 690.275452,869.355896 691.954468,867.643738 
	C716.093201,843.029602 740.283020,818.465088 764.550964,793.978333 
	C781.440979,776.935974 798.478516,760.039917 815.416992,743.045532 
	C816.689148,741.769226 817.695679,740.228149 818.907898,738.488281 
	C848.219238,738.112305 877.448486,738.049500 906.677673,738.008484 
	C917.806030,737.992859 928.934509,738.027405 940.527222,738.102905 
	C939.341919,740.596863 938.029907,743.363586 935.992676,745.407532 
	C895.131714,786.401978 854.182617,827.308594 813.277466,868.258972 
	C811.770813,869.767334 810.529175,871.540527 809.078369,873.511841 
	C768.968323,873.881897 728.943970,873.930603 688.455322,873.906250 
z"/>
<path fill="#FC783C" opacity="1.000000" stroke="none" 
	d="
M343.996216,376.831787 
	C333.334564,376.554657 322.673981,376.189667 312.010529,376.056000 
	C308.960754,376.017761 305.902618,376.649658 302.450684,376.554443 
	C303.120331,374.504364 303.948669,372.638428 305.290009,371.278473 
	C335.920502,340.223999 366.539429,309.157562 397.296478,278.228516 
	C471.622986,203.486282 546.018799,128.813004 620.386719,54.111889 
	C620.856689,53.639778 621.434998,53.234509 621.776367,52.682785 
	C622.895996,50.873077 623.929565,49.010120 624.996216,47.167648 
	C639.687195,46.454456 654.378174,45.741253 669.449158,45.419746 
	C662.984802,53.275246 656.396118,60.993534 649.257507,68.164459 
	C550.521667,167.347702 451.710236,266.455780 352.917206,365.582123 
	C352.093842,366.408295 351.165375,367.153900 350.463959,368.072906 
	C348.262238,370.957550 346.145721,373.907288 343.996216,376.831787 
z"/>
<path fill="#FC7E3B" opacity="1.000000" stroke="none" 
	d="
M624.566956,47.097198 
	C623.929565,49.010120 622.895996,50.873077 621.776367,52.682785 
	C621.434998,53.234509 620.856689,53.639778 620.386719,54.111889 
	C546.018799,128.813004 471.622986,203.486282 397.296478,278.228516 
	C366.539429,309.157562 335.920502,340.223999 305.290009,371.278473 
	C303.948669,372.638428 303.120331,374.504364 302.025208,376.483459 
	C285.508453,378.659607 269.512268,382.422394 254.214096,388.952087 
	C252.440384,389.709137 250.604675,390.320892 248.419510,391.056824 
	C249.355576,388.914124 250.285629,386.331696 252.040298,384.571167 
	C295.175964,341.292023 338.463257,298.163971 381.590118,254.876083 
	C433.635986,202.635880 485.583344,150.297470 537.517883,97.946548 
	C550.287659,85.074364 562.850403,71.996574 575.478638,58.984505 
	C576.387573,58.047943 577.052368,56.874466 577.914856,55.489479 
	C585.039795,53.586834 592.032776,51.730930 599.133789,50.496658 
	C607.419189,49.056530 615.798889,48.159458 624.566956,47.097198 
z"/>
<path fill="#FC8739" opacity="1.000000" stroke="none" 
	d="
M524.580200,70.943314 
	C523.710815,73.010689 522.505554,75.162857 521.192139,77.246811 
	C520.758484,77.934929 520.047729,78.449272 519.459900,79.039261 
	C426.822327,172.010910 334.159515,264.957458 241.556229,357.963287 
	C189.736511,410.008240 137.988403,462.124603 86.261780,514.262146 
	C61.401478,539.319946 36.668755,564.504395 11.865094,589.618469 
	C10.462466,591.038635 8.940165,592.340698 7.182329,593.872375 
	C6.268209,586.005188 5.645316,577.963318 5.094858,569.459534 
	C6.760243,567.849426 8.544715,566.893372 9.917746,565.524536 
	C35.168835,540.351196 60.423706,515.181274 85.571732,489.905060 
	C136.326111,438.892181 187.016403,387.815491 237.733673,336.765656 
	C288.685760,285.479431 339.663483,234.218597 390.581177,182.898193 
	C418.967987,154.286926 447.262177,125.583725 475.565125,96.889397 
	C476.822601,95.614494 477.751678,94.015694 478.897278,92.225296 
	C494.041290,84.922379 509.121735,77.961945 524.580200,70.943314 
z"/>
<path fill="#FB713D" opacity="1.000000" stroke="none" 
	d="
M344.410095,376.905273 
	C346.145721,373.907288 348.262238,370.957550 350.463959,368.072906 
	C351.165375,367.153900 352.093842,366.408295 352.917206,365.582123 
	C451.710236,266.455780 550.521667,167.347702 649.257507,68.164459 
	C656.396118,60.993534 662.984802,53.275246 669.912964,45.489815 
	C681.979858,45.447830 693.963989,45.697227 705.945190,46.047546 
	C707.354858,46.088768 708.748352,46.684673 710.546509,47.444199 
	C709.641541,49.730648 708.580505,51.835400 707.002258,53.427341 
	C658.573792,102.274483 610.087524,151.064240 561.657654,199.909973 
	C560.192932,201.387268 559.235779,203.367798 558.041992,205.113724 
	C537.499939,214.756805 518.079224,226.205460 500.654663,240.849701 
	C493.991943,246.449249 486.892151,251.637207 480.855286,257.851776 
	C465.426849,273.734375 450.765778,290.311157 439.056885,309.894775 
	C436.488892,311.313934 434.305664,312.267365 432.748016,313.840271 
	C412.026093,334.764954 391.381744,355.766541 370.763306,376.793335 
	C369.638306,377.940582 368.911713,379.478485 367.999695,380.834595 
	C360.274475,379.549316 352.549225,378.264038 344.410095,376.905273 
z"/>
<path fill="#EA0554" opacity="1.000000" stroke="none" 
	d="
M1083.958496,528.109497 
	C1079.772095,523.706421 1075.854248,519.004639 1071.349487,514.955750 
	C1057.284058,502.313873 1041.578613,492.340118 1023.317993,486.140381 
	C1032.355225,476.032288 1041.255371,466.381866 1050.494629,457.067810 
	C1073.337036,434.040436 1096.329346,411.161682 1119.282104,388.243988 
	C1120.803955,386.724518 1122.500000,385.379669 1124.114990,383.953583 
	C1132.917847,389.979919 1142.162476,395.463470 1150.407715,402.174896 
	C1159.953735,409.945129 1168.634033,418.780884 1177.648804,427.198425 
	C1178.576294,428.064514 1179.221191,429.233337 1179.759766,430.783356 
	C1175.771606,435.279724 1172.114014,439.347290 1168.255371,443.214203 
	C1141.604370,469.921875 1114.906738,496.583008 1088.244141,523.279175 
	C1086.725708,524.799438 1085.383057,526.495361 1083.958496,528.109497 
z"/>
<path fill="#FC9736" opacity="1.000000" stroke="none" 
	d="
M14.882023,475.960999 
	C17.730772,466.336792 19.853683,456.419434 23.595182,447.155823 
	C29.484409,432.574524 35.897808,418.140778 43.122410,404.179169 
	C52.261658,386.517456 63.393410,370.017120 76.553864,355.040741 
	C85.062302,345.358276 93.823288,335.871918 102.885910,326.707855 
	C119.881386,309.522186 139.372986,295.475708 160.011093,283.043335 
	C180.654739,270.607635 202.571732,260.901031 225.607666,253.777161 
	C230.085129,252.392517 234.635406,251.243362 239.491974,250.280945 
	C237.876221,253.229218 236.209076,256.165894 233.921066,258.491821 
	C205.787933,287.091064 177.655304,315.692017 149.342209,344.112823 
	C106.443336,387.174896 63.415134,430.108185 20.366369,473.020447 
	C18.959328,474.423035 16.728731,474.999451 14.882023,475.960999 
z"/>
<path fill="#F20559" opacity="1.000000" stroke="none" 
	d="
M1123.942139,383.646362 
	C1122.500000,385.379669 1120.803955,386.724518 1119.282104,388.243988 
	C1096.329346,411.161682 1073.337036,434.040436 1050.494629,457.067810 
	C1041.255371,466.381866 1032.355225,476.032288 1023.125854,485.821106 
	C1010.931152,483.905609 998.911377,481.698669 986.021667,479.332031 
	C986.021667,463.442719 986.021667,446.183655 986.414124,428.377319 
	C988.224548,426.700012 989.775635,425.701416 991.040588,424.420227 
	C1012.802429,402.379364 1034.538574,380.313110 1056.235596,358.208374 
	C1057.361572,357.061249 1058.085938,355.519989 1058.997314,354.162170 
	C1081.847534,361.091522 1103.515015,370.646729 1123.942139,383.646362 
z"/>
<path fill="#E70552" opacity="1.000000" stroke="none" 
	d="
M1084.097412,528.422607 
	C1085.383057,526.495361 1086.725708,524.799438 1088.244141,523.279175 
	C1114.906738,496.583008 1141.604370,469.921875 1168.255371,443.214203 
	C1172.114014,439.347290 1175.771606,435.279724 1179.814209,431.130127 
	C1191.897705,442.010254 1200.694214,455.381134 1209.358398,468.848511 
	C1210.671753,470.890106 1211.775879,473.066284 1213.012695,475.537964 
	C1209.447266,480.015289 1206.062134,484.350342 1202.209595,488.219818 
	C1173.343384,517.213013 1144.398071,546.127563 1115.418945,575.007996 
	C1113.835083,576.586548 1111.728638,577.640808 1109.516846,578.964905 
	C1106.239136,570.930664 1104.032593,562.505676 1100.194336,554.904724 
	C1095.603516,545.813782 1089.617798,537.427246 1084.097412,528.422607 
z"/>
<path fill="#FB6440" opacity="1.000000" stroke="none" 
	d="
M744.997498,52.166645 
	C751.975525,53.461304 759.040955,54.408379 765.909729,56.137268 
	C774.792664,58.373180 783.518555,61.233288 792.571045,64.317390 
	C791.701843,66.224998 790.693359,67.758385 789.427856,69.037430 
	C754.120117,104.721764 718.786438,140.380325 683.457397,176.043488 
	C682.872314,176.634094 682.129333,177.140060 681.744446,177.841568 
	C681.048645,179.109924 680.567932,180.496262 679.997437,181.833328 
	C670.015015,181.888824 659.981262,181.330887 650.063599,182.160614 
	C638.590576,183.120453 627.219788,185.301605 615.429260,186.544006 
	C616.353943,184.272415 617.414062,182.171921 618.988892,180.580872 
	C659.813599,139.334534 700.698242,98.147430 741.533447,56.911423 
	C742.895935,55.535568 743.851990,53.757332 744.997498,52.166645 
z"/>
<path fill="#FC783C" opacity="1.000000" stroke="none" 
	d="
M33.955162,690.107971 
	C28.297043,675.021790 22.638927,659.935669 17.273289,644.366760 
	C22.009520,639.457764 26.460608,635.038879 30.895891,630.604126 
	C67.061546,594.442383 103.210968,558.264343 139.437042,522.163208 
	C140.866684,520.738525 143.018661,520.038574 144.834076,519.000916 
	C143.555847,531.597290 141.729996,544.170349 141.192139,556.798218 
	C140.834076,565.204956 142.313980,573.689880 142.552429,582.595764 
	C140.390335,584.232849 138.404083,585.170349 136.939438,586.630920 
	C103.649117,619.828430 70.412987,653.080322 37.183800,686.338989 
	C36.018024,687.505798 35.027420,688.847717 33.955162,690.107971 
z"/>
<path fill="#FB4A45" opacity="1.000000" stroke="none" 
	d="
M916.724487,68.370186 
	C925.273621,73.534630 933.822876,78.699097 942.600220,84.338715 
	C939.993042,88.268410 937.424072,91.988625 934.282532,95.137665 
	C886.419006,143.115860 838.475830,191.014557 790.569092,238.949631 
	C786.940796,242.580124 783.446594,246.344681 779.890076,250.046906 
	C774.263611,241.309433 768.637146,232.571945 763.155945,223.179474 
	C779.296814,206.087082 795.149292,189.507477 811.317810,173.242050 
	C844.505981,139.855179 877.858948,106.632095 911.164001,73.361473 
	C912.923584,71.603737 914.866760,70.029755 916.724487,68.370186 
z"/>
<path fill="#FC9237" opacity="1.000000" stroke="none" 
	d="
M14.544872,476.162231 
	C16.728731,474.999451 18.959328,474.423035 20.366369,473.020447 
	C63.415134,430.108185 106.443336,387.174896 149.342209,344.112823 
	C177.655304,315.692017 205.787933,287.091064 233.921066,258.491821 
	C236.209076,256.165894 237.876221,253.229218 239.896545,250.229095 
	C250.785126,247.584000 261.610016,245.290741 272.430359,242.976196 
	C273.042786,242.845200 273.617828,242.539429 274.605164,242.240173 
	C273.962250,243.981598 273.255676,246.123459 271.837677,247.565933 
	C244.860764,275.008270 217.885162,302.452911 190.735886,329.724457 
	C153.815582,366.811035 116.690971,403.694214 79.767464,440.777618 
	C57.554638,463.086578 35.575600,485.628265 13.425434,507.999969 
	C11.850101,509.591064 9.730144,510.642944 7.514385,511.972900 
	C9.109252,502.015137 11.047978,492.029053 13.001604,482.045837 
	C13.373431,480.145813 13.804166,478.257263 14.544872,476.162231 
z"/>
<path fill="#FB5B42" opacity="1.000000" stroke="none" 
	d="
M120.958466,802.114990 
	C117.149338,799.084961 113.080177,796.325989 109.583191,792.970642 
	C101.315735,785.037903 93.320206,776.821716 85.258263,768.124146 
	C86.653236,766.067505 87.957695,764.560120 89.363075,763.153564 
	C111.787468,740.709351 134.254257,718.307434 156.637024,695.821899 
	C161.781464,690.653870 166.520004,685.080566 171.687683,679.937195 
	C174.930710,676.709473 178.625748,673.935913 182.117966,670.958557 
	C192.279510,683.208374 203.531021,694.291138 216.715561,703.880981 
	C215.814651,705.468079 214.973312,706.502747 214.040222,707.446716 
	C184.208984,737.626404 154.365601,767.794067 124.541489,797.980774 
	C123.262573,799.275269 122.149040,800.733215 120.958466,802.114990 
z"/>
<path fill="#F71554" opacity="1.000000" stroke="none" 
	d="
M1182.833862,144.001740 
	C1182.880127,159.024750 1182.926270,174.047791 1182.569214,189.611481 
	C1179.812622,191.928101 1177.251343,193.490250 1175.155396,195.530563 
	C1172.071899,198.532120 1169.449707,202.003845 1166.407593,205.052292 
	C1135.282227,236.243042 1104.089478,267.366821 1073.003418,298.596802 
	C1070.967041,300.642639 1069.650513,303.404938 1067.999146,305.833984 
	C1052.976318,305.880432 1037.953491,305.926880 1022.542419,305.569824 
	C1023.330444,303.384399 1024.264893,301.369751 1025.720825,299.857178 
	C1037.719849,287.392212 1049.691528,274.896606 1061.905151,262.643250 
	C1100.345215,224.078323 1138.874634,185.602432 1177.438843,147.161621 
	C1178.867432,145.737518 1181.019165,145.038605 1182.833862,144.001740 
z"/>
<path fill="#FB5B42" opacity="1.000000" stroke="none" 
	d="
M680.457153,181.904877 
	C680.567932,180.496262 681.048645,179.109924 681.744446,177.841568 
	C682.129333,177.140060 682.872314,176.634094 683.457397,176.043488 
	C718.786438,140.380325 754.120117,104.721764 789.427856,69.037430 
	C790.693359,67.758385 791.701843,66.224998 792.913696,64.488319 
	C797.300720,65.456635 802.017883,66.022446 805.818054,68.193459 
	C812.899414,72.239067 818.826904,70.066170 825.628967,67.348907 
	C833.812927,64.079597 842.630737,62.396954 851.502319,60.418896 
	C850.583618,62.343697 849.456421,63.995594 848.072266,65.393051 
	C809.210632,104.631340 770.316406,143.837372 731.467041,183.087891 
	C730.104065,184.464935 729.145630,186.242416 727.998596,187.833252 
	C712.304688,185.880981 696.610840,183.928711 680.457153,181.904877 
z"/>
<path fill="#EA0554" opacity="1.000000" stroke="none" 
	d="
M1206.993408,305.164429 
	C1225.767212,305.164429 1244.541016,305.164429 1263.656982,305.164429 
	C1263.656982,332.306732 1263.656982,359.321533 1263.656982,386.668945 
	C1236.636353,386.668945 1209.621704,386.668945 1182.020020,386.668945 
	C1182.020020,368.061462 1182.020020,349.491425 1182.414307,330.374695 
	C1188.910156,324.014435 1195.083740,318.273743 1201.075317,312.349030 
	C1203.270142,310.178772 1205.033325,307.572083 1206.993408,305.164429 
z"/>
<path fill="#F71554" opacity="1.000000" stroke="none" 
	d="
M595.999939,738.166138 
	C610.689514,738.119873 625.379150,738.073608 640.505737,738.445496 
	C639.524719,740.844971 638.351196,743.070251 636.653076,744.772034 
	C595.517151,786.000305 554.317688,827.165222 513.171509,868.383362 
	C511.568390,869.989197 510.378723,872.007751 508.996338,873.833984 
	C494.640259,873.880493 480.284210,873.927063 465.491425,873.554932 
	C466.353546,871.273743 467.412781,869.173523 468.988403,867.585693 
	C484.681000,851.771179 500.517700,836.099609 516.199158,820.274109 
	C541.816467,794.421631 567.357422,768.493530 592.888672,742.556030 
	C594.130554,741.294312 594.971985,739.638428 595.999939,738.166138 
z"/>
<path fill="#FA274D" opacity="1.000000" stroke="none" 
	d="
M407.995361,873.831848 
	C393.639618,873.879395 379.283844,873.926941 364.548157,873.582642 
	C365.414429,871.658264 366.538147,870.003662 367.925476,868.611938 
	C385.535339,850.945496 403.245941,833.379089 420.805939,815.663452 
	C444.559052,791.699829 468.223694,767.648193 491.846222,743.555847 
	C493.259644,742.114319 493.964935,739.978394 494.999756,738.165649 
	C509.688690,738.120178 524.377625,738.074646 539.447144,738.420288 
	C539.051514,739.872620 538.390686,741.046265 537.482056,741.978333 
	C522.638855,757.203369 507.865570,772.498535 492.874725,787.577271 
	C466.034149,814.575134 439.046997,841.427185 412.167542,868.386475 
	C410.566711,869.992126 409.376587,872.007263 407.995361,873.831848 
z"/>
<path fill="#FB4446" opacity="1.000000" stroke="none" 
	d="
M780.031860,250.361694 
	C783.446594,246.344681 786.940796,242.580124 790.569092,238.949631 
	C838.475830,191.014557 886.419006,143.115860 934.282532,95.137665 
	C937.424072,91.988625 939.993042,88.268410 942.913086,84.490143 
	C949.273376,90.552254 955.548950,96.938072 961.675720,103.813019 
	C960.534546,105.184990 959.494507,106.020103 958.556763,106.957512 
	C911.725830,153.772903 864.902161,200.595627 818.089417,247.429138 
	C817.035645,248.483368 816.172913,249.728104 815.122681,250.786285 
	C809.395447,256.556702 803.637390,262.296509 797.889954,268.046875 
	C791.984497,262.256744 786.079041,256.466614 780.031860,250.361694 
z"/>
<path fill="#F60C58" opacity="1.000000" stroke="none" 
	d="
M509.460815,873.903564 
	C510.378723,872.007751 511.568390,869.989197 513.171509,868.383362 
	C554.317688,827.165222 595.517151,786.000305 636.653076,744.772034 
	C638.351196,743.070251 639.524719,740.844971 640.969604,738.514893 
	C654.686462,738.119873 668.376343,738.073669 682.530212,738.094299 
	C681.726868,740.210022 680.797302,742.594971 679.142090,744.257751 
	C649.342346,774.195068 619.408508,803.998840 589.609192,833.936646 
	C577.771790,845.829224 566.182312,857.968811 554.510559,870.025635 
	C553.604431,870.961731 552.941040,872.132874 552.079712,873.516846 
	C537.971436,873.883606 523.948364,873.928406 509.460815,873.903564 
z"/>
<path fill="#FB6C3E" opacity="1.000000" stroke="none" 
	d="
M744.633667,51.978401 
	C743.851990,53.757332 742.895935,55.535568 741.533447,56.911423 
	C700.698242,98.147430 659.813599,139.334534 618.988892,180.580872 
	C617.414062,182.171921 616.353943,184.272415 615.026245,186.484360 
	C595.640259,190.974396 576.783875,196.668686 558.411377,205.058289 
	C559.235779,203.367798 560.192932,201.387268 561.657654,199.909973 
	C610.087524,151.064240 658.573792,102.274483 707.002258,53.427341 
	C708.580505,51.835400 709.641541,49.730648 710.970825,47.516129 
	C722.088623,48.708260 733.179199,50.249210 744.633667,51.978401 
z"/>
<path fill="#F91F50" opacity="1.000000" stroke="none" 
	d="
M932.834351,334.000824 
	C932.880554,347.024292 932.926758,360.047760 932.581787,373.619507 
	C929.012451,377.059814 925.699036,379.817627 922.676880,382.864349 
	C889.786011,416.022491 856.933777,449.218933 824.110718,482.444183 
	C822.866821,483.703308 822.027161,485.361694 820.999146,486.834045 
	C807.975403,486.880890 794.951660,486.927704 781.491455,486.555542 
	C782.237793,484.390259 783.187622,482.416290 784.638550,480.932098 
	C803.705200,461.427582 822.752502,441.902710 841.983398,422.560638 
	C870.378052,394.001984 898.899109,365.568817 927.442261,337.158508 
	C928.871399,335.736053 931.020508,335.036835 932.834351,334.000824 
z"/>
<path fill="#FB5144" opacity="1.000000" stroke="none" 
	d="
M916.397461,68.202072 
	C914.866760,70.029755 912.923584,71.603737 911.164001,73.361473 
	C877.858948,106.632095 844.505981,139.855179 811.317810,173.242050 
	C795.149292,189.507477 779.296814,206.087082 763.125916,222.815323 
	C760.048706,213.990997 757.146790,204.875809 754.360229,195.229904 
	C755.937378,193.345810 757.460449,192.052261 758.851501,190.629684 
	C772.211792,176.967422 785.441589,163.175644 798.916992,149.628113 
	C826.829590,121.566116 854.880371,93.641579 882.828247,65.614647 
	C884.429443,64.008842 885.618652,61.992210 886.999634,60.166786 
	C896.689941,62.789177 906.380188,65.411560 916.397461,68.202072 
z"/>
<path fill="#FB6C3E" opacity="1.000000" stroke="none" 
	d="
M149.832916,612.567444 
	C154.884583,623.769409 159.936264,634.971375 164.842865,646.824585 
	C164.393539,647.871094 164.128998,648.305969 163.779358,648.655884 
	C132.484360,679.979126 101.189117,711.302185 69.853745,742.584961 
	C68.836746,743.600281 67.405769,744.200928 66.167778,744.994873 
	C59.522972,734.894470 52.878159,724.794067 46.521912,714.261841 
	C48.459820,712.467041 50.232800,711.227844 51.740265,709.722717 
	C82.558365,678.953186 113.338806,648.145935 144.159195,617.378723 
	C145.908325,615.632629 147.935272,614.164795 149.832916,612.567444 
z"/>
<path fill="#FB4047" opacity="1.000000" stroke="none" 
	d="
M798.052795,268.355560 
	C803.637390,262.296509 809.395447,256.556702 815.122681,250.786285 
	C816.172913,249.728104 817.035645,248.483368 818.089417,247.429138 
	C864.902161,200.595627 911.725830,153.772903 958.556763,106.957512 
	C959.494507,106.020103 960.534546,105.184990 961.818176,104.127457 
	C966.069214,110.025803 970.028992,116.098839 973.790161,122.779991 
	C971.748413,125.071358 969.828552,126.678551 968.073486,128.449203 
	C933.948669,162.876862 899.844482,197.325027 865.732910,231.765900 
	C849.789246,247.863403 833.839111,263.954468 817.891846,280.048462 
	C811.333130,276.253693 804.774353,272.458954 798.052795,268.355560 
z"/>
<path fill="#FB3849" opacity="1.000000" stroke="none" 
	d="
M981.833313,143.000595 
	C983.209656,148.129684 984.950562,153.195450 985.855713,158.406372 
	C986.693115,163.226532 986.635681,168.202103 986.581055,173.638580 
	C984.540039,175.531723 982.760010,176.766251 981.259766,178.278366 
	C945.437500,214.385086 909.645203,250.521667 873.847046,286.652344 
	C872.910889,287.597229 871.873657,288.461670 871.057495,289.500275 
	C870.255798,290.520447 869.676208,291.715027 868.999146,292.833099 
	C858.568420,291.287506 848.137634,289.741913 837.437866,287.693115 
	C838.181702,285.891052 839.076782,284.476227 840.224792,283.310425 
	C864.634521,258.521851 889.017944,233.706909 913.521912,209.011734 
	C934.283936,188.087784 955.167297,167.283875 976.085388,146.515915 
	C977.636108,144.976288 979.900635,144.155518 981.833313,143.000595 
z"/>
<path fill="#FB324A" opacity="1.000000" stroke="none" 
	d="
M332.999268,873.833130 
	C321.482300,873.827209 309.965332,873.821167 298.374664,873.169556 
	C303.599792,866.783325 308.715485,860.860229 314.227051,855.331787 
	C351.387299,818.058167 388.639740,780.876465 425.820099,743.622864 
	C427.424469,742.015381 428.615082,739.994995 429.998444,738.166931 
	C441.355804,738.120422 452.713135,738.073914 464.449951,738.420105 
	C461.763916,742.497437 458.962708,746.445435 455.592499,749.826416 
	C416.158173,789.386536 376.630432,828.853638 337.169067,868.386841 
	C335.567596,869.991150 334.379791,872.008362 332.999268,873.833130 
z"/>
<path fill="#FC7E3B" opacity="1.000000" stroke="none" 
	d="
M144.913910,518.608765 
	C143.018661,520.038574 140.866684,520.738525 139.437042,522.163208 
	C103.210968,558.264343 67.061546,594.442383 30.895891,630.604126 
	C26.460608,635.038879 22.009520,639.457764 17.224270,643.962891 
	C14.596062,634.638062 12.309349,625.234375 10.094486,615.414429 
	C11.980097,613.962830 14.131564,613.265991 15.558611,611.842773 
	C59.743324,567.778137 103.875648,523.660889 147.959717,479.495514 
	C153.825546,473.618927 159.352982,467.405762 165.125839,461.434204 
	C166.362885,460.154602 167.985046,459.247253 169.772202,458.105469 
	C168.074783,461.706177 166.083588,465.397980 163.986603,469.028656 
	C155.327820,484.020294 149.466629,500.080627 145.582306,516.905579 
	C145.476593,517.363464 145.193909,517.780457 144.913910,518.608765 
z"/>
<path fill="#FB2C4B" opacity="1.000000" stroke="none" 
	d="
M776.165710,455.998444 
	C776.119141,440.975677 776.072632,425.952942 776.445068,410.438507 
	C778.489624,408.884583 780.357605,408.065643 781.704956,406.723938 
	C805.475281,383.053253 829.202271,359.338837 852.852722,335.548462 
	C854.271545,334.121185 854.969177,331.976868 856.002380,330.166199 
	C871.025024,330.119781 886.047668,330.073364 901.450500,330.418182 
	C900.701904,332.224762 899.697632,333.764526 898.426208,335.037415 
	C859.279663,374.228271 820.113586,413.399597 780.910034,452.533386 
	C779.540405,453.900574 777.756531,454.852814 776.165710,455.998444 
z"/>
<path fill="#FB5443" opacity="1.000000" stroke="none" 
	d="
M886.580078,60.080460 
	C885.618652,61.992210 884.429443,64.008842 882.828247,65.614647 
	C854.880371,93.641579 826.829590,121.566116 798.916992,149.628113 
	C785.441589,163.175644 772.211792,176.967422 758.851501,190.629684 
	C757.460449,192.052261 755.937378,193.345810 754.184692,194.874481 
	C745.523254,192.698700 737.152649,190.347641 728.390381,187.914917 
	C729.145630,186.242416 730.104065,184.464935 731.467041,183.087891 
	C770.316406,143.837372 809.210632,104.631340 848.072266,65.393051 
	C849.456421,63.995594 850.583618,62.343697 851.914307,60.488586 
	C862.480469,59.785339 872.962158,59.377960 883.446716,59.068832 
	C884.341492,59.042454 885.255554,59.670254 886.580078,60.080460 
z"/>
<path fill="#FB3849" opacity="1.000000" stroke="none" 
	d="
M429.534485,738.097229 
	C428.615082,739.994995 427.424469,742.015381 425.820099,743.622864 
	C388.639740,780.876465 351.387299,818.058167 314.227051,855.331787 
	C308.715485,860.860229 303.599792,866.783325 298.125702,872.814880 
	C287.919220,872.061768 277.888031,871.017700 267.512756,869.581665 
	C268.532318,867.539734 269.771729,865.765747 271.277710,864.257996 
	C311.113892,824.376160 350.992645,784.536804 390.787170,744.613464 
	C392.561432,742.833435 393.612213,740.332214 395.000000,738.166870 
	C406.356812,738.120422 417.713654,738.073975 429.534485,738.097229 
z"/>
<path fill="#FA274D" opacity="1.000000" stroke="none" 
	d="
M776.095581,456.462585 
	C777.756531,454.852814 779.540405,453.900574 780.910034,452.533386 
	C820.113586,413.399597 859.279663,374.228271 898.426208,335.037415 
	C899.697632,333.764526 900.701904,332.224762 901.914490,330.487610 
	C911.375183,330.111359 920.753479,330.133026 930.127930,329.951996 
	C932.649231,329.903320 933.317993,330.911285 932.903137,333.565369 
	C931.020508,335.036835 928.871399,335.736053 927.442261,337.158508 
	C898.899109,365.568817 870.378052,394.001984 841.983398,422.560638 
	C822.752502,441.902710 803.705200,461.427582 784.638550,480.932098 
	C783.187622,482.416290 782.237793,484.390259 781.027466,486.485474 
	C779.512268,486.834351 778.024658,486.834351 776.025391,486.834351 
	C776.025391,476.842377 776.025391,466.884583 776.095581,456.462585 
z"/>
<path fill="#FB3B48" opacity="1.000000" stroke="none" 
	d="
M394.535889,738.097046 
	C393.612213,740.332214 392.561432,742.833435 390.787170,744.613464 
	C350.992645,784.536804 311.113892,824.376160 271.277710,864.257996 
	C269.771729,865.765747 268.532318,867.539734 267.084717,869.511353 
	C257.788818,867.812378 248.576874,865.791687 239.308746,863.127808 
	C240.904526,860.420410 242.378143,858.178162 244.234695,856.318054 
	C281.747559,818.734863 319.312592,781.203796 356.824066,743.619263 
	C358.427460,742.012817 359.617188,739.993408 360.999603,738.166382 
	C372.023682,738.119995 383.047729,738.073608 394.535889,738.097046 
z"/>
<path fill="#FB4047" opacity="1.000000" stroke="none" 
	d="
M360.535522,738.096680 
	C359.617188,739.993408 358.427460,742.012817 356.824066,743.619263 
	C319.312592,781.203796 281.747559,818.734863 244.234695,856.318054 
	C242.378143,858.178162 240.904526,860.420410 239.101700,862.795959 
	C230.401627,860.417725 221.852417,857.728271 213.081543,854.548523 
	C214.349594,852.095886 215.634918,849.929688 217.359207,848.201416 
	C252.160172,813.320007 287.020477,778.497742 321.824493,743.619324 
	C323.427734,742.012634 324.617462,739.993286 325.999786,738.166138 
	C337.357025,738.119751 348.714233,738.073303 360.535522,738.096680 
z"/>
<path fill="#FA274D" opacity="1.000000" stroke="none" 
	d="
M1083.999634,142.165527 
	C1099.355225,142.120026 1114.710693,142.074524 1130.445557,142.422867 
	C1128.700562,145.559845 1126.841675,148.567642 1124.411621,151.006226 
	C1090.966309,184.570038 1057.450195,218.063354 1023.909546,251.531982 
	C1022.540344,252.898193 1020.757874,253.850250 1019.168030,254.995300 
	C1019.120361,239.639603 1019.072754,224.283936 1019.444214,208.436859 
	C1021.605957,206.766495 1023.602295,205.838211 1025.053101,204.370605 
	C1043.832153,185.372894 1062.556274,166.320587 1081.205444,147.195374 
	C1082.497437,145.870346 1083.084717,143.858154 1083.999634,142.165527 
z"/>
<path fill="#FB324A" opacity="1.000000" stroke="none" 
	d="
M869.440308,292.903320 
	C869.676208,291.715027 870.255798,290.520447 871.057495,289.500275 
	C871.873657,288.461670 872.910889,287.597229 873.847046,286.652344 
	C909.645203,250.521667 945.437500,214.385086 981.259766,178.278366 
	C982.760010,176.766251 984.540039,175.531723 986.511475,174.083618 
	C987.291687,200.390411 979.434326,224.201675 963.977112,245.418274 
	C949.169189,265.743500 929.567261,279.792175 905.475281,287.006439 
	C896.967651,289.554047 887.956726,290.446136 879.153931,291.969025 
	C876.096680,292.497864 872.974182,292.649536 869.440308,292.903320 
z"/>
<path fill="#FB2C4B" opacity="1.000000" stroke="none" 
	d="
M333.463379,873.903320 
	C334.379791,872.008362 335.567596,869.991150 337.169067,868.386841 
	C376.630432,828.853638 416.158173,789.386536 455.592499,749.826416 
	C458.962708,746.445435 461.763916,742.497437 464.913940,738.489746 
	C474.689453,738.120117 484.380493,738.073486 494.535645,738.096191 
	C493.964935,739.978394 493.259644,742.114319 491.846222,743.555847 
	C468.223694,767.648193 444.559052,791.699829 420.805939,815.663452 
	C403.245941,833.379089 385.535339,850.945496 367.925476,868.611938 
	C366.538147,870.003662 365.414429,871.658264 364.084167,873.512451 
	C353.975891,873.880676 343.951691,873.927124 333.463379,873.903320 
z"/>
<path fill="#F60C58" opacity="1.000000" stroke="none" 
	d="
M1068.463257,305.903778 
	C1069.650513,303.404938 1070.967041,300.642639 1073.003418,298.596802 
	C1104.089478,267.366821 1135.282227,236.243042 1166.407593,205.052292 
	C1169.449707,202.003845 1172.071899,198.532120 1175.155396,195.530563 
	C1177.251343,193.490250 1179.812622,191.928101 1182.500000,190.075546 
	C1182.880249,204.022141 1182.926636,218.045303 1182.583374,232.617279 
	C1180.664185,234.409225 1178.998657,235.518890 1177.625610,236.915939 
	C1162.282471,252.527008 1147.000854,268.198669 1131.665649,283.817474 
	C1125.968994,289.619324 1120.132690,295.284424 1114.456055,301.105316 
	C1113.105469,302.490051 1112.139771,304.250000 1110.996948,305.837372 
	C1096.973755,305.882751 1082.950562,305.928162 1068.463257,305.903778 
z"/>
<path fill="#FB4446" opacity="1.000000" stroke="none" 
	d="
M325.546936,738.096436 
	C324.617462,739.993286 323.427734,742.012634 321.824493,743.619324 
	C287.020477,778.497742 252.160172,813.320007 217.359207,848.201416 
	C215.634918,849.929688 214.349594,852.095886 212.748108,854.445923 
	C203.657623,851.193970 194.678909,847.554260 185.766144,843.478394 
	C186.867935,842.213196 187.993713,841.474243 188.926575,840.542236 
	C222.376495,807.124573 255.821609,773.702087 289.193451,740.206604 
	C290.499603,738.895508 291.081299,736.862610 292.000549,735.166077 
	C303.031738,736.119568 314.062927,737.073120 325.546936,738.096436 
z"/>
<path fill="#FB713D" opacity="1.000000" stroke="none" 
	d="
M149.866516,612.152588 
	C147.935272,614.164795 145.908325,615.632629 144.159195,617.378723 
	C113.338806,648.145935 82.558365,678.953186 51.740265,709.722717 
	C50.232800,711.227844 48.459820,712.467041 46.488739,713.913940 
	C42.114712,706.277588 38.062424,698.557495 33.982651,690.472656 
	C35.027420,688.847717 36.018024,687.505798 37.183800,686.338989 
	C70.412987,653.080322 103.649117,619.828430 136.939438,586.630920 
	C138.404083,585.170349 140.390335,584.232849 142.482422,583.023315 
	C145.187515,592.575867 147.543823,602.156799 149.866516,612.152588 
z"/>
<path fill="#FB3B48" opacity="1.000000" stroke="none" 
	d="
M981.901978,142.608902 
	C979.900635,144.155518 977.636108,144.976288 976.085388,146.515915 
	C955.167297,167.283875 934.283936,188.087784 913.521912,209.011734 
	C889.017944,233.706909 864.634521,258.521851 840.224792,283.310425 
	C839.076782,284.476227 838.181702,285.891052 837.084656,287.511658 
	C830.746582,285.449646 824.492615,283.065918 818.065308,280.365326 
	C833.839111,263.954468 849.789246,247.863403 865.732910,231.765900 
	C899.844482,197.325027 933.948669,162.876862 968.073486,128.449203 
	C969.828552,126.678551 971.748413,125.071358 973.821533,123.141624 
	C976.691162,129.335831 979.330872,135.776520 981.901978,142.608902 
z"/>
<path fill="#F91F50" opacity="1.000000" stroke="none" 
	d="
M408.459839,873.902222 
	C409.376587,872.007263 410.566711,869.992126 412.167542,868.386475 
	C439.046997,841.427185 466.034149,814.575134 492.874725,787.577271 
	C507.865570,772.498535 522.638855,757.203369 537.482056,741.978333 
	C538.390686,741.046265 539.051514,739.872620 539.910828,738.489746 
	C549.352844,738.121155 558.711609,738.074097 568.449951,738.419556 
	C565.763123,742.497742 562.961060,746.446899 559.589905,749.828857 
	C520.497070,789.047852 481.303040,828.166016 442.211853,867.386719 
	C440.437408,869.167175 439.386078,871.668396 437.997925,873.833862 
	C428.306702,873.880127 418.615509,873.926331 408.459839,873.902222 
z"/>
<path fill="#FB6440" opacity="1.000000" stroke="none" 
	d="
M66.194321,745.332825 
	C67.405769,744.200928 68.836746,743.600281 69.853745,742.584961 
	C101.189117,711.302185 132.484360,679.979126 163.779358,648.655884 
	C164.128998,648.305969 164.393539,647.871094 164.873215,647.185120 
	C170.642624,654.708008 176.236603,662.521545 181.974274,670.646851 
	C178.625748,673.935913 174.930710,676.709473 171.687683,679.937195 
	C166.520004,685.080566 161.781464,690.653870 156.637024,695.821899 
	C134.254257,718.307434 111.787468,740.709351 89.363075,763.153564 
	C87.957695,764.560120 86.653236,766.067505 85.126907,767.819275 
	C78.708290,760.630615 72.464584,753.150696 66.194321,745.332825 
z"/>
<path fill="#FB4A45" opacity="1.000000" stroke="none" 
	d="
M291.592896,735.095215 
	C291.081299,736.862610 290.499603,738.895508 289.193451,740.206604 
	C255.821609,773.702087 222.376495,807.124573 188.926575,840.542236 
	C187.993713,841.474243 186.867935,842.213196 185.480820,843.221436 
	C177.968857,839.650085 170.808151,835.899536 163.407669,831.669312 
	C164.534485,829.537048 165.777420,827.761047 167.285858,826.250183 
	C198.121597,795.365906 228.997681,764.521912 259.819183,733.623474 
	C261.423248,732.015564 262.613861,729.995178 263.996948,728.166870 
	C273.059723,730.452698 282.122467,732.738525 291.592896,735.095215 
z"/>
<path fill="#F81A52" opacity="1.000000" stroke="none" 
	d="
M438.462189,873.903625 
	C439.386078,871.668396 440.437408,869.167175 442.211853,867.386719 
	C481.303040,828.166016 520.497070,789.047852 559.589905,749.828857 
	C562.961060,746.446899 565.763123,742.497742 568.914001,738.489014 
	C577.689514,738.119690 586.380615,738.073486 595.535767,738.096680 
	C594.971985,739.638428 594.130554,741.294312 592.888672,742.556030 
	C567.357422,768.493530 541.816467,794.421631 516.199158,820.274109 
	C500.517700,836.099609 484.681000,851.771179 468.988403,867.585693 
	C467.412781,869.173523 466.353546,871.273743 465.027344,873.485107 
	C456.308807,873.880432 447.617645,873.926941 438.462189,873.903625 
z"/>
<path fill="#FB5144" opacity="1.000000" stroke="none" 
	d="
M263.658020,727.997559 
	C262.613861,729.995178 261.423248,732.015564 259.819183,733.623474 
	C228.997681,764.521912 198.121597,795.365906 167.285858,826.250183 
	C165.777420,827.761047 164.534485,829.537048 163.083679,831.511292 
	C155.726746,827.114929 148.454025,822.396851 141.328384,817.188721 
	C142.936295,815.346375 144.455368,814.051392 145.849121,812.633179 
	C163.309464,794.866272 180.708328,777.038818 198.213287,759.316101 
	C210.474564,746.902283 222.896973,734.647705 235.182755,722.257935 
	C236.661758,720.766418 237.736023,718.873657 238.997864,717.166870 
	C247.104965,720.720642 255.212051,724.274414 263.658020,727.997559 
z"/>
<path fill="#FB5443" opacity="1.000000" stroke="none" 
	d="
M238.673798,717.009338 
	C237.736023,718.873657 236.661758,720.766418 235.182755,722.257935 
	C222.896973,734.647705 210.474564,746.902283 198.213287,759.316101 
	C180.708328,777.038818 163.309464,794.866272 145.849121,812.633179 
	C144.455368,814.051392 142.936295,815.346375 141.184708,816.874084 
	C134.338913,812.276855 127.783875,807.504272 121.093658,802.423340 
	C122.149040,800.733215 123.262573,799.275269 124.541489,797.980774 
	C154.365601,767.794067 184.208984,737.626404 214.040222,707.446716 
	C214.973312,706.502747 215.814651,705.468079 216.874298,704.185059 
	C224.149796,708.213501 231.249771,712.532654 238.673798,717.009338 
z"/>
<path fill="#F91F50" opacity="1.000000" stroke="none" 
	d="
M1019.097778,255.459747 
	C1020.757874,253.850250 1022.540344,252.898193 1023.909546,251.531982 
	C1057.450195,218.063354 1090.966309,184.570038 1124.411621,151.006226 
	C1126.841675,148.567642 1128.700562,145.559845 1130.909302,142.492386 
	C1140.019287,142.121078 1149.044922,142.074081 1158.450684,142.418304 
	C1157.701050,144.225830 1156.689819,145.759216 1155.423950,147.041290 
	C1125.843628,176.999512 1096.259888,206.954422 1066.622559,236.856232 
	C1052.794189,250.807922 1038.888916,264.683960 1024.911499,278.485931 
	C1023.356262,280.021576 1021.097961,280.845245 1019.165771,281.999115 
	C1019.119629,273.307495 1019.073547,264.615845 1019.097778,255.459747 
z"/>
<path fill="#F81A52" opacity="1.000000" stroke="none" 
	d="
M1019.095886,282.463226 
	C1021.097961,280.845245 1023.356262,280.021576 1024.911499,278.485931 
	C1038.888916,264.683960 1052.794189,250.807922 1066.622559,236.856232 
	C1096.259888,206.954422 1125.843628,176.999512 1155.423950,147.041290 
	C1156.689819,145.759216 1157.701050,144.225830 1158.914795,142.487671 
	C1166.203369,142.112411 1173.408325,142.024353 1180.612671,142.055954 
	C1181.382812,142.059341 1182.149780,142.760925 1182.875977,143.570190 
	C1181.019165,145.038605 1178.867432,145.737518 1177.438843,147.161621 
	C1138.874634,185.602432 1100.345215,224.078323 1061.905151,262.643250 
	C1049.691528,274.896606 1037.719849,287.392212 1025.720825,299.857178 
	C1024.264893,301.369751 1023.330444,303.384399 1022.078491,305.500061 
	C1019.530273,306.488739 1018.924072,305.353485 1018.963684,303.044647 
	C1019.078491,296.340485 1019.017822,289.633331 1019.095886,282.463226 
z"/>
<path fill="#F71554" opacity="1.000000" stroke="none" 
	d="
M896.994507,486.832214 
	C880.972534,486.879333 864.950623,486.926422 848.548706,486.581970 
	C848.946594,485.127014 849.609741,483.952087 850.519409,483.017151 
	C864.331848,468.821747 878.121399,454.603455 892.030518,440.503204 
	C903.845093,428.526245 915.783081,416.670563 927.731934,404.827209 
	C929.227539,403.344818 931.123352,402.266144 932.833740,401.000427 
	C932.879578,417.356079 932.925415,433.711700 932.580078,450.616119 
	C931.365295,451.708984 930.422058,452.132874 929.736023,452.815277 
	C919.479797,463.016235 909.241028,473.234924 899.056213,483.506989 
	C898.161316,484.409546 897.672119,485.714264 896.994507,486.832214 
z"/>
<path fill="#F20559" opacity="1.000000" stroke="none" 
	d="
M1111.461182,305.907776 
	C1112.139771,304.250000 1113.105469,302.490051 1114.456055,301.105316 
	C1120.132690,295.284424 1125.968994,289.619324 1131.665649,283.817474 
	C1147.000854,268.198669 1162.282471,252.527008 1177.625610,236.915939 
	C1178.998657,235.518890 1180.664185,234.409225 1182.515625,233.081360 
	C1182.837524,256.779236 1182.837524,280.561798 1182.837524,305.033813 
	C1190.882202,305.033813 1198.473511,305.033813 1206.529175,305.099121 
	C1205.033325,307.572083 1203.270142,310.178772 1201.075317,312.349030 
	C1195.083740,318.273743 1188.910156,324.014435 1182.486572,329.910522 
	C1182.164429,322.199402 1182.164429,314.405823 1182.164429,305.978119 
	C1158.413818,305.978119 1135.169556,305.978119 1111.461182,305.907776 
z"/>
<path fill="#FB4047" opacity="1.000000" stroke="none" 
	d="
M1001.167114,104.996941 
	C1001.119995,91.973717 1001.072876,78.950500 1001.417847,65.379265 
	C1002.633118,64.288094 1003.577026,63.866089 1004.261658,63.183861 
	C1017.912292,49.580849 1031.601318,36.014790 1045.106934,22.268713 
	C1048.082520,19.240015 1050.386475,15.551327 1052.999634,12.166569 
	C1066.023193,12.120229 1079.046753,12.073899 1092.450195,12.419022 
	C1085.758667,20.501072 1078.915527,28.417269 1071.573364,35.839851 
	C1049.801636,57.849968 1027.845337,79.677467 1005.913391,101.528427 
	C1004.541321,102.895378 1002.758789,103.850311 1001.167114,104.996941 
z"/>
<path fill="#F81A52" opacity="1.000000" stroke="none" 
	d="
M932.903198,400.536255 
	C931.123352,402.266144 929.227539,403.344818 927.731934,404.827209 
	C915.783081,416.670563 903.845093,428.526245 892.030518,440.503204 
	C878.121399,454.603455 864.331848,468.821747 850.519409,483.017151 
	C849.609741,483.952087 848.946594,485.127014 848.084717,486.512085 
	C839.309509,486.880432 830.618530,486.927063 821.463318,486.903870 
	C822.027161,485.361694 822.866821,483.703308 824.110718,482.444183 
	C856.933777,449.218933 889.786011,416.022491 922.676880,382.864349 
	C925.699036,379.817627 929.012451,377.059814 932.512390,374.083588 
	C932.880310,382.690277 932.926453,391.381195 932.903198,400.536255 
z"/>
<path fill="#FB3B48" opacity="1.000000" stroke="none" 
	d="
M1001.096680,105.442474 
	C1002.758789,103.850311 1004.541321,102.895378 1005.913391,101.528427 
	C1027.845337,79.677467 1049.801636,57.849968 1071.573364,35.839851 
	C1078.915527,28.417269 1085.758667,20.501072 1092.914062,12.488838 
	C1095.467407,12.167202 1097.936646,12.167202 1100.972656,12.167202 
	C1100.972656,20.539413 1100.972656,28.804716 1100.553955,37.561722 
	C1098.509888,39.115784 1096.643188,39.935490 1095.295532,41.276825 
	C1073.524048,62.946056 1051.796631,84.659851 1030.148071,106.452019 
	C1028.729980,107.879616 1028.031860,110.022606 1026.998901,111.832840 
	C1018.530762,111.832840 1010.062561,111.832840 1001.026245,111.832840 
	C1001.026245,109.744804 1001.026245,107.816406 1001.096680,105.442474 
z"/>
<path fill="#F60C58" opacity="1.000000" stroke="none" 
	d="
M1058.601440,354.093201 
	C1058.085938,355.519989 1057.361572,357.061249 1056.235596,358.208374 
	C1034.538574,380.313110 1012.802429,402.379364 991.040588,424.420227 
	C989.775635,425.701416 988.224548,426.700012 986.484375,427.913116 
	C986.116943,414.306488 986.071594,400.616791 986.444946,386.435730 
	C988.374023,384.997162 990.117981,384.286896 991.357788,383.065094 
	C1000.719482,373.840393 1010.058350,364.589355 1019.221619,355.168823 
	C1021.491150,352.835632 1023.090881,349.851013 1024.998535,347.165833 
	C1035.429077,349.339264 1045.859253,351.513702 1056.290527,353.683563 
	C1056.925049,353.815552 1057.567017,353.911499 1058.601440,354.093201 
z"/>
<path fill="#FB2C4B" opacity="1.000000" stroke="none" 
	d="
M1083.535522,142.096176 
	C1083.084717,143.858154 1082.497437,145.870346 1081.205444,147.195374 
	C1062.556274,166.320587 1043.832153,185.372894 1025.053101,204.370605 
	C1023.602295,205.838211 1021.605957,206.766495 1019.514282,207.972870 
	C1019.165405,186.210312 1019.165405,164.420364 1019.165405,142.026825 
	C1040.566528,142.026825 1061.818970,142.026825 1083.535522,142.096176 
z"/>
<path fill="#FB324A" opacity="1.000000" stroke="none" 
	d="
M855.538025,330.096558 
	C854.969177,331.976868 854.271545,334.121185 852.852722,335.548462 
	C829.202271,359.338837 805.475281,383.053253 781.704956,406.723938 
	C780.357605,408.065643 778.489624,408.884583 776.515137,409.974640 
	C776.119446,398.644501 776.072693,387.286560 776.417847,375.380463 
	C777.630920,374.291199 778.572449,373.871124 779.255066,373.191071 
	C792.515259,359.982178 805.758118,346.755646 818.953064,333.481567 
	C819.844971,332.584290 820.328308,331.280853 821.001587,330.166321 
	C832.358948,330.119843 843.716309,330.073334 855.538025,330.096558 
z"/>
<path fill="#FB3849" opacity="1.000000" stroke="none" 
	d="
M1027.463013,111.903107 
	C1028.031860,110.022606 1028.729980,107.879616 1030.148071,106.452019 
	C1051.796631,84.659851 1073.524048,62.946056 1095.295532,41.276825 
	C1096.643188,39.935490 1098.509888,39.115784 1100.484131,38.025616 
	C1100.879395,46.688492 1100.925903,55.379173 1100.553955,64.561615 
	C1098.626709,65.999428 1096.880371,66.705643 1095.645874,67.928520 
	C1082.896729,80.558289 1070.189575,93.231499 1057.592407,106.012589 
	C1056.032227,107.595558 1055.179565,109.875771 1053.999023,111.832901 
	C1045.308350,111.879723 1036.617798,111.926544 1027.463013,111.903107 
z"/>
<path fill="#FB6C3E" opacity="1.000000" stroke="none" 
	d="
M368.425781,380.906006 
	C368.911713,379.478485 369.638306,377.940582 370.763306,376.793335 
	C391.381744,355.766541 412.026093,334.764954 432.748016,313.840271 
	C434.305664,312.267365 436.488892,311.313934 438.747986,310.058472 
	C427.976501,333.256378 416.748260,356.425812 405.757721,379.707458 
	C402.650604,386.289398 401.692200,386.711365 392.418121,384.804779 
	C384.629608,383.203552 376.712189,382.229279 368.425781,380.906006 
z"/>
<path fill="#FB4446" opacity="1.000000" stroke="none" 
	d="
M1052.535645,12.096680 
	C1050.386475,15.551327 1048.082520,19.240015 1045.106934,22.268713 
	C1031.601318,36.014790 1017.912292,49.580849 1004.261658,63.183861 
	C1003.577026,63.866089 1002.633118,64.288094 1001.488220,64.915237 
	C1001.166504,47.541649 1001.166504,30.084066 1001.166504,12.026779 
	C1018.230347,12.026779 1035.150879,12.026779 1052.535645,12.096680 
z"/>
<path fill="#FB324A" opacity="1.000000" stroke="none" 
	d="
M1054.463135,111.903252 
	C1055.179565,109.875771 1056.032227,107.595558 1057.592407,106.012589 
	C1070.189575,93.231499 1082.896729,80.558289 1095.645874,67.928520 
	C1096.880371,66.705643 1098.626709,65.999428 1100.484253,65.025543 
	C1100.833130,80.454300 1100.833130,95.910896 1100.833130,111.973595 
	C1085.433228,111.973595 1070.180298,111.973595 1054.463135,111.903252 
z"/>
<path fill="#FB3849" opacity="1.000000" stroke="none" 
	d="
M820.537354,330.096680 
	C820.328308,331.280853 819.844971,332.584290 818.953064,333.481567 
	C805.758118,346.755646 792.515259,359.982178 779.255066,373.191071 
	C778.572449,373.871124 777.630920,374.291199 776.488098,374.916504 
	C776.166321,360.209900 776.166321,345.419128 776.166321,330.027039 
	C790.898132,330.027039 805.485596,330.027039 820.537354,330.096680 
z"/>
<path fill="#F71554" opacity="1.000000" stroke="none" 
	d="
M1024.631226,346.972534 
	C1023.090881,349.851013 1021.491150,352.835632 1019.221619,355.168823 
	C1010.058350,364.589355 1000.719482,373.840393 991.357788,383.065094 
	C990.117981,384.286896 988.374023,384.997162 986.514771,385.971558 
	C986.165894,372.585999 986.165894,359.173218 986.165894,345.062531 
	C998.904724,345.409668 1011.648621,343.691986 1024.631226,346.972534 
z"/>
<path fill="#F60C58" opacity="1.000000" stroke="none" 
	d="
M897.459106,486.902039 
	C897.672119,485.714264 898.161316,484.409546 899.056213,483.506989 
	C909.241028,473.234924 919.479797,463.016235 929.736023,452.815277 
	C930.422058,452.132874 931.365295,451.708984 932.510559,451.079895 
	C932.832214,462.784668 932.832214,474.574463 932.832214,486.971863 
	C921.097839,486.971863 909.510803,486.971863 897.459106,486.902039 
z"/>
</svg>